<svg xmlns="http://www.w3.org/2000/svg" version="1.1" xmlns:xlink="http://www.w3.org/1999/xlink" width="512" height="512" x="0" y="0" viewBox="0 0 512 512" style="enable-background:new 0 0 512 512" xml:space="preserve" class=""><g><path d="M258.7 7.52C394.7 8.96 504.5 119.66 504.5 256S394.7 503.04 258.7 504.48L434.5 256 258.7 7.52z" style="" fill="#de1db3" data-original="#e0230d" class="" opacity="1"></path><path d="M258.7 7.52C372.6 9.24 464.5 119.83 464.5 256s-91.9 246.76-205.8 248.48c-.9.01-1.8.02-2.7.02C118.76 504.5 7.5 393.24 7.5 256S118.76 7.5 256 7.5c.9 0 1.8.01 2.7.02zM380.5 256c0-68.76-55.74-124.5-124.5-124.5S131.5 187.24 131.5 256 187.24 380.5 256 380.5 380.5 324.76 380.5 256z" style="" fill="#ff62dc" data-original="#ff5440" class="" opacity="1"></path><path d="M437.02 74.98C388.668 26.629 324.38 0 256 0S123.332 26.629 74.98 74.98 0 187.62 0 256s26.629 132.668 74.98 181.02S187.62 512 256 512s132.668-26.629 181.02-74.98S512 324.38 512 256s-26.629-132.668-74.98-181.02zM256 497C123.112 497 15 388.888 15 256S123.112 15 256 15s241 108.112 241 241-108.112 241-241 241z" fill="#000000" opacity="1" data-original="#000000"></path><path d="M256 124c-72.785 0-132 59.215-132 132 0 29.84 9.716 57.994 28.097 81.42a7.5 7.5 0 0 0 11.801-9.259C147.609 307.401 139 282.449 139 256c0-64.514 52.486-117 117-117s117 52.486 117 117-52.486 117-117 117c-26.449 0-51.401-8.609-72.16-24.897a7.5 7.5 0 0 0-10.53 1.271 7.5 7.5 0 0 0 1.271 10.53C198.006 378.284 226.16 388 256 388c72.785 0 132-59.215 132-132s-59.215-132-132-132z" fill="#000000" opacity="1" data-original="#000000"></path></g></svg>