<svg xmlns="http://www.w3.org/2000/svg" version="1.1" xmlns:xlink="http://www.w3.org/1999/xlink" width="512" height="512" x="0" y="0" viewBox="0 0 512.002 512.002" style="enable-background:new 0 0 512 512" xml:space="preserve" class=""><g><path d="m504.5 95.181-160.82 160.82 160.82 160.82-21.21 21.22-272.04-182.04 272.04-182.03z" style="" fill="#09a5b2" data-original="#e0230d" class="" opacity="1"></path><path d="m483.29 73.971-182.04 182.03 182.04 182.04-66.47 66.46L256 343.681 95.18 504.501 7.5 416.821l160.82-160.82L7.5 95.181l87.68-87.68L256 168.321 416.82 7.501z" style="" fill="#27d5e3" data-original="#ff5440" class="" opacity="1"></path><path d="m354.288 256.001 155.516-155.515a7.5 7.5 0 0 0 0-10.607L422.123 2.198a7.499 7.499 0 0 0-10.607-.001L256 157.713 100.486 2.198a7.502 7.502 0 0 0-10.607 0L2.197 89.879a7.501 7.501 0 0 0-.001 10.608l155.517 155.514L93.212 320.5a7.5 7.5 0 0 0 10.607 10.607l69.804-69.803a7.502 7.502 0 0 0 0-10.608L18.107 95.183l77.075-77.075 155.515 155.516a7.502 7.502 0 0 0 10.607 0L416.82 18.108l77.074 77.075-155.516 155.515a7.5 7.5 0 0 0 0 10.607L493.894 416.82l-77.074 77.075-155.516-155.516a7.502 7.502 0 0 0-10.607 0L95.182 493.895 18.107 416.82l64.5-64.499A7.5 7.5 0 0 0 72 341.714L2.197 411.516a7.5 7.5 0 0 0 0 10.607l87.682 87.682c1.465 1.464 3.385 2.196 5.304 2.196s3.839-.732 5.304-2.196L256 354.289l155.516 155.516a7.502 7.502 0 0 0 10.608 0l87.681-87.682a7.5 7.5 0 0 0 0-10.607L354.288 256.001z" fill="#000000" opacity="1" data-original="#000000" class=""></path></g></svg>